<?xml version="1.0" encoding="UTF-8" standalone="no"?>
<!-- Created with Inkscape (http://www.inkscape.org/) -->

<svg
   xmlns:dc="http://purl.org/dc/elements/1.1/"
   xmlns:cc="http://creativecommons.org/ns#"
   xmlns:rdf="http://www.w3.org/1999/02/22-rdf-syntax-ns#"
   xmlns:svg="http://www.w3.org/2000/svg"
   xmlns="http://www.w3.org/2000/svg"
   xmlns:sodipodi="http://sodipodi.sourceforge.net/DTD/sodipodi-0.dtd"
   xmlns:inkscape="http://www.inkscape.org/namespaces/inkscape"
   id="svg2"
   version="1.1"
   inkscape:version="0.48.3.1 r9886"
   width="701.175"
   height="659.0625"
   xml:space="preserve"
   sodipodi:docname="TMS_LOGO_06_2014_hack_o710_0436_02.svg"><metadata
     id="metadata8"><rdf:RDF><cc:Work
         rdf:about=""><dc:format>image/svg+xml</dc:format><dc:type
           rdf:resource="http://purl.org/dc/dcmitype/StillImage" /><dc:title></dc:title></cc:Work></rdf:RDF></metadata><defs
     id="defs6"><clipPath
       clipPathUnits="userSpaceOnUse"
       id="clipPath18"><path
         d="m 0,2.48047 5609,0 0,5269.52003 -5609,0 L 0,2.48047 z"
         id="path20" /></clipPath></defs><sodipodi:namedview
     pagecolor="#ffffff"
     bordercolor="#666666"
     borderopacity="1"
     objecttolerance="10"
     gridtolerance="10"
     guidetolerance="10"
     inkscape:pageopacity="0"
     inkscape:pageshadow="2"
     inkscape:window-width="1221"
     inkscape:window-height="689"
     id="namedview4"
     showgrid="false"
     inkscape:zoom="0.64161814"
     inkscape:cx="576.87707"
     inkscape:cy="352.14377"
     inkscape:window-x="48"
     inkscape:window-y="0"
     inkscape:window-maximized="0"
     inkscape:current-layer="g10" /><g
     id="g10"
     inkscape:groupmode="layer"
     inkscape:label="ink_ext_XXXXXX"
     transform="matrix(1.25,0,0,-1.25,0,659.0625)"><path
       inkscape:connector-curvature="0"
       id="path22-9-2"
       style="fill:#000000;fill-opacity:1;fill-rule:nonzero;stroke:none"
       d="m 1.2468474,247.23654 560.9380026,0 0,258.21101 -560.9380026,0 0,-258.21101 z" /><g
       transform="translate(1.2468474,247.2365)"
       id="g3158-3-8"><path
         d="m 299.29,121.816 c 0,-4.085 -1.596,-7.248 -4.791,-9.491 -3.196,-2.24 -7.693,-3.361 -13.495,-3.361 -10.788,0 -17.04,3.747 -18.757,11.247 l 5.812,1.163 c 0.67,-2.668 2.093,-4.626 4.272,-5.876 2.178,-1.25 5.143,-1.874 8.893,-1.874 3.876,0 6.864,0.666 8.971,2 2.104,1.335 3.156,3.291 3.156,5.878 0,1.444 -0.33,2.618 -0.989,3.518 -0.659,0.899 -1.587,1.643 -2.78,2.229 -1.196,0.587 -2.62,1.082 -4.274,1.479 -1.654,0.397 -3.487,0.828 -5.497,1.289 -3.498,0.773 -6.154,1.55 -7.967,2.324 -1.811,0.776 -3.239,1.639 -4.287,2.593 -1.048,0.954 -1.85,2.067 -2.404,3.346 -0.557,1.278 -0.833,2.745 -0.833,4.399 0,3.791 1.45,6.715 4.352,8.77 2.902,2.051 7.054,3.078 12.458,3.078 5.026,0 8.869,-0.77 11.53,-2.309 2.66,-1.539 4.526,-4.165 5.595,-7.872 l -5.908,-1.036 c -0.65,2.348 -1.887,4.047 -3.709,5.108 -1.821,1.056 -4.345,1.587 -7.571,1.587 -3.541,0 -6.241,-0.587 -8.106,-1.76 -1.865,-1.174 -2.795,-2.924 -2.795,-5.25 0,-1.364 0.36,-2.49 1.082,-3.378 0.722,-0.892 1.765,-1.646 3.126,-2.263 1.361,-0.618 4.074,-1.379 8.139,-2.278 1.361,-0.314 2.717,-0.635 4.069,-0.957 1.35,-0.327 2.643,-0.713 3.878,-1.165 1.237,-0.448 2.395,-0.978 3.474,-1.587 1.078,-0.607 2.017,-1.35 2.813,-2.23 0.795,-0.881 1.417,-1.918 1.869,-3.111 0.448,-1.194 0.674,-2.598 0.674,-4.21"
         style="fill:#ffffff;fill-opacity:1;fill-rule:nonzero;stroke:none"
         id="path24-4-1"
         inkscape:connector-curvature="0" /><path
         d="m 347.639,131.932 c 0,-4.63 -0.887,-8.682 -2.659,-12.16 -1.771,-3.478 -4.313,-6.148 -7.623,-8.013 -3.311,-1.865 -7.219,-2.795 -11.725,-2.795 -4.55,0 -8.474,0.922 -11.776,2.765 -3.302,1.844 -5.821,4.509 -7.56,7.995 -1.741,3.489 -2.611,7.559 -2.611,12.208 0,7.082 1.939,12.616 5.817,16.608 3.878,3.991 9.273,5.987 16.19,5.987 4.507,0 8.417,-0.897 11.728,-2.688 3.31,-1.791 5.843,-4.395 7.593,-7.807 1.75,-3.415 2.626,-7.448 2.626,-12.1 z m -6.128,0.018 c 0,5.514 -1.378,9.842 -4.135,12.99 -2.758,3.143 -6.651,4.717 -11.684,4.717 -5.073,0 -8.992,-1.552 -11.759,-4.657 -2.768,-3.103 -4.153,-7.453 -4.153,-13.05 0,-5.557 1.4,-9.965 4.198,-13.226 2.8,-3.261 6.685,-4.891 11.654,-4.891 5.115,0 9.038,1.579 11.775,4.735 2.737,3.154 4.104,7.614 4.104,13.382"
         style="fill:#ffffff;fill-opacity:1;fill-rule:nonzero;stroke:none"
         id="path26-1-9"
         inkscape:connector-curvature="0" /><path
         d="m 373.941,149.657 c -4.901,0 -8.714,-1.578 -11.436,-4.735 -2.723,-3.154 -4.084,-7.477 -4.084,-12.968 0,-5.43 1.417,-9.795 4.256,-13.099 2.837,-3.3 6.676,-4.952 11.514,-4.952 6.201,0 10.859,3.06 13.98,9.181 l 4.902,-2.447 c -1.822,-3.808 -4.383,-6.704 -7.682,-8.69 -3.297,-1.99 -7.125,-2.983 -11.482,-2.983 -4.463,0 -8.321,0.926 -11.577,2.781 -3.257,1.853 -5.739,4.503 -7.446,7.949 -1.708,3.447 -2.56,7.525 -2.56,12.238 0,7.061 1.904,12.591 5.716,16.593 3.813,4.002 9.091,6.002 15.836,6.002 4.714,0 8.65,-0.924 11.813,-2.77 3.163,-1.845 5.489,-4.583 6.976,-8.213 l -5.688,-1.886 c -1.025,2.59 -2.675,4.573 -4.949,5.943 -2.271,1.369 -4.969,2.056 -8.089,2.056"
         style="fill:#ffffff;fill-opacity:1;fill-rule:nonzero;stroke:none"
         id="path28-6-7"
         inkscape:connector-curvature="0" /><path
         d="m 399.818,109.59 6,0 0,44.241 -6,0 0,-44.241 z"
         style="fill:#ffffff;fill-opacity:1;fill-rule:nonzero;stroke:none"
         id="path30-3-6"
         inkscape:connector-curvature="0" /><path
         d="m 415.456,109.59 0,44.241 33.587,0 0,-4.87 -27.585,0 0,-14.19 25.701,0 0,-4.869 -25.701,0 0,-15.443 28.874,0 0,-4.869 -34.876,0"
         style="fill:#ffffff;fill-opacity:1;fill-rule:nonzero;stroke:none"
         id="path32-9-8"
         inkscape:connector-curvature="0" /><path
         d="m 474.107,148.961 0,-39.371 -5.971,0 0,39.371 -15.206,0 0,4.87 36.381,0 0,-4.87 -15.204,0"
         style="fill:#ffffff;fill-opacity:1;fill-rule:nonzero;stroke:none"
         id="path34-3-1"
         inkscape:connector-curvature="0" /><path
         d="m 513.548,127.928 0,-18.338 -5.969,0 0,18.338 -17.029,25.903 6.596,0 13.481,-21.064 13.416,21.064 6.598,0 -17.093,-25.903"
         style="fill:#ffffff;fill-opacity:1;fill-rule:nonzero;stroke:none"
         id="path36-1-2"
         inkscape:connector-curvature="0" /></g><path
       inkscape:connector-curvature="0"
       style="fill:#ffffff;fill-opacity:1;fill-rule:nonzero;stroke:none"
       d="m 163.07185,470.86155 c -42.747,0 -78.616696,-29.454 -88.425003,-69.175 l 10.599997,0 9.2,-29.85 0.1,0 9.624996,29.85 17.55001,0 0,-44.90001 -11.25001,0 0.175,34.52501 -0.125,0 -11.074996,-34.52501 -10.65,0 -10.624997,34.52501 -0.125,0 0.275,-34.52501 -3.4,0 c 10.188707,-39.171 45.792003,-68.1 88.150003,-68.1 42.362,0 77.962,28.929 88.15,68.1 l -8.275,0 -15.25,30.72501 -0.1,0 0.35,-30.72501 -10.55,0 0,44.90001 14.825,0 14.725,-30.475 0.125,0 -0.2,30.475 4.625,0 c -9.81,39.721 -45.673,69.175 -88.425,69.175 z m -17,-68.4 c 14.46,-0.25 21.707,-8.002 21.75,-23.225 -0.082,-15.183 -7.331,-22.93701 -21.75,-23.25001 -14.444,0.313 -21.697,8.06701 -21.775,23.25001 0.039,15.223 7.292,22.975 21.775,23.225 z m 46.125,0 c 14.46,-0.25 21.707,-8.002 21.75,-23.225 -0.082,-15.183 -7.331,-22.93701 -21.75,-23.25001 -14.442,0.313 -21.722,8.06701 -21.8,23.25001 0.039,15.223 7.316,22.975 21.8,23.225 z m -46.125,-8.825 c -3.447,-0.043 -5.936,-1.441 -7.475,-4.2 -1.582,-2.757 -2.375,-6.157 -2.375,-10.2 0,-3.851 0.793,-7.175 2.375,-9.975 1.539,-2.929 4.028,-4.409 7.475,-4.45 3.526,0.041 6.055,1.521 7.575,4.45 1.502,2.8 2.25,6.124 2.25,9.975 0,4.043 -0.748,7.443 -2.25,10.2 -1.52,2.759 -4.049,4.157 -7.575,4.2 z m 46.125,0 c -3.447,-0.043 -5.957,-1.441 -7.5,-4.2 -1.581,-2.757 -2.35,-6.157 -2.35,-10.2 0,-3.851 0.769,-7.175 2.35,-9.975 1.543,-2.929 4.053,-4.409 7.5,-4.45 3.526,0.041 6.053,1.521 7.575,4.45 1.502,2.8 2.25,6.124 2.25,9.975 0,4.043 -0.748,7.443 -2.25,10.2 -1.522,2.759 -4.049,4.157 -7.575,4.2 z"
       id="path38-8-3" /><path
       style="fill:#cccccc;fill-opacity:1;stroke:none"
       d="m 155.67184,466.56158 c -0.0356,-0.003 -0.0616,-0.0283 -0.075,-0.0501 -0.0352,-0.057 -0.007,-0.0605 0.05,-0.025 0.0564,0.0349 0.10729,0.0149 0.125,-0.025 0.0528,-0.11904 0.80084,-0.48264 0.975,-0.47504 0.0887,0.004 0.12444,0.0355 0.1,0.075 -0.0245,0.0394 -0.10229,0.0529 -0.175,0.025 -0.0784,-0.0301 -0.16164,0.0292 -0.2,0.15 -0.0518,0.1632 -0.0913,0.19016 -0.2,0.1 -0.0747,-0.062 -0.12458,-0.0711 -0.125,-0.025 -7.5e-4,0.11624 -0.32049,0.26432 -0.475,0.25008 z m 6.25,-2.82504 c -0.0124,-0.004 -0.0245,-0.0123 -0.025,-0.05 -0.002,-0.212 0.67788,-0.4468 0.8,-0.27504 0.039,0.0547 0.0742,0.014 0.075,-0.1 7.6e-4,-0.15304 0.0628,-0.22832 0.275,-0.27496 0.15887,-0.0348 0.41492,-0.12016 0.575,-0.2 0.39156,-0.19528 0.61016,-0.22856 0.775,-0.1 0.11125,0.0868 0.12643,0.0623 0.075,-0.075 -0.0555,-0.14808 -0.0526,-0.14512 0.125,-0.0501 0.17191,0.092 0.19851,0.0764 0.15,-0.0499 -0.0385,-0.1004 -0.0113,-0.13312 0.075,-0.1 0.071,0.0273 0.17862,-0.0192 0.25,-0.1 0.19441,-0.21984 0.31146,-0.18056 0.15,0.0499 -0.209,0.29848 -0.54612,0.53424 -0.55,0.37504 -0.002,-0.0771 -0.0384,-0.0645 -0.125,0.05 -0.0775,0.10248 -0.15,0.13784 -0.15,0.075 0,-0.16544 -0.15744,-0.15104 -0.225,0.025 -0.0461,0.12008 0.003,0.14904 0.25,0.12504 0.23978,-0.0234 0.32156,0.009 0.35,0.14992 0.0292,0.1452 -0.008,0.16032 -0.15,0.1 -0.0977,-0.0416 -0.2834,-0.0756 -0.425,-0.1 -0.274,-0.0471 -0.46584,-0.32496 -0.225,-0.32496 0.0775,0 0.125,-0.0454 0.125,-0.1 0,-0.16808 -0.35707,0.0859 -0.425,0.3 -0.0692,0.218 -0.625,0.55128 -0.625,0.37504 0,-0.0624 -0.12768,-0.0166 -0.325,0.1 -0.23208,0.13688 -0.35939,0.17944 -0.4,0.17496 -0.0244,-0.003 -0.0305,-0.0257 0,-0.075 0.0726,-0.11744 -0.26256,-0.069 -0.35,0.0499 -0.0217,0.0296 -0.0375,0.029 -0.05,0.025 z m 3.925,-1.45 c -0.22852,-0.0172 -0.24684,-0.0282 -0.075,-0.2 0.16884,-0.1688 0.425,-0.16424 0.425,0 0,0.068 -0.056,0.10216 -0.1,0.075 -0.044,-0.0272 -0.075,-0.003 -0.075,0.0499 0,0.0526 -0.0695,0.083 -0.175,0.075 z m 43.425,-4.87504 c -0.17387,-0.008 -0.36211,-0.0492 -0.425,-0.12496 -0.085,-0.10232 -0.0879,-0.15672 0.025,-0.2 0.21924,-0.0841 0.17441,-0.28368 -0.05,-0.22496 -0.11423,0.0298 -0.1603,0.0319 -0.125,-0.025 0.0326,-0.0528 0.15408,-0.0981 0.275,-0.075 0.13849,0.0265 0.20145,0.019 0.175,-0.0501 -0.0255,-0.0662 0.0633,-0.10272 0.225,-0.1 0.14665,0.002 0.2632,0.0354 0.25,0.075 -0.0132,0.0396 -0.025,0.0972 -0.025,0.15 0,0.0528 -0.0408,0.1 -0.1,0.1 -0.0744,0 -0.0825,-0.0506 0,-0.15 0.0825,-0.0995 0.0744,-0.12504 0,-0.12496 -0.0592,0 -0.0961,0.0104 -0.1,0.0499 -0.004,0.0397 -0.0279,0.18128 -0.05,0.3 -0.0272,0.14552 0.003,0.22504 0.1,0.22504 0.0788,0 0.15,0.0222 0.15,0.075 0,0.0727 -0.15112,0.1084 -0.325,0.1 z m -10.675,-0.47496 c -0.056,-0.003 -0.12396,-0.0146 -0.2,-0.025 -0.24487,-0.0336 -0.57595,-0.075 -0.75,-0.075 -0.30804,0 -0.32805,0.002 -0.275,-0.32504 0.0437,-0.2688 0.0253,-0.34992 -0.1,-0.34992 -0.086,0 -0.15,-0.0222 -0.15,-0.075 0,-0.0543 0.26632,-0.1 0.625,-0.1 0.53108,0 0.62244,0.0265 0.575,0.15 -0.0322,0.084 0.019,0.16896 0.1,0.2 0.22773,0.0874 0.16767,0.22504 -0.1,0.22504 -0.13927,0 -0.23364,0.0456 -0.2,0.1 0.0326,0.0527 0.2184,0.075 0.4,0.075 0.18248,0 0.325,0.0647 0.325,0.12504 0,0.0558 -0.082,0.0848 -0.25,0.075 z m 7.8,-0.025 c -0.26556,-0.0405 -0.29493,-0.13016 -0.075,-0.2 0.11031,-0.035 0.18376,-0.12032 0.15,-0.17496 -0.0412,-0.0669 -0.0845,-0.0655 -0.125,0 -0.0331,0.0536 -0.239,0.1208 -0.45,0.15 -0.10548,0.0146 -0.18686,0.025 -0.225,0.025 0.006,-0.003 0.0106,-0.0206 0.025,-0.025 0.0962,-0.029 0.15164,-0.1056 0.125,-0.17504 -0.0266,-0.0694 -0.0343,-0.16568 0,-0.2 0.0343,-0.0342 0.11247,0.0299 0.15,0.12504 0.0625,0.1584 0.0619,0.1508 0.075,-0.025 0.008,-0.1056 0.0233,-0.14096 0.05,-0.075 0.0266,0.066 0.0986,0.12504 0.15,0.12504 0.0515,0 0.0617,-0.0406 0.025,-0.1 -0.0487,-0.0788 -0.007,-0.0989 0.125,-0.025 0.22574,0.12632 0.24277,0.55344 0.05,0.57496 -0.0129,0.002 -0.0352,0.001 -0.05,0 z m -67.125,-4 c -0.0864,8e-5 -0.17564,-0.009 -0.25,-0.025 -5.70885,-1.15464 -10.69384,-7.59072 -16.425,-3.1 -7.17971,0.0245 -4.69269,-9.83272 -9.975,-9.82496 -0.93268,-2.83336 -7.777,-2.50568 -3.65,-4.5 -2.97684,-3.82944 -2.25915,-1.13704 -3.375,0.82496 -8.124216,0.69448 4.52043,10.87776 1.2,13.5 -4.70936,-4.22512 -9.186296,-9.35912 -12.824996,-14.77504 -0.98935,-2.54888 2.51245,-1.73912 -0.875,-3.77496 -1.93992,-3.57152 -8.5599,-10.24064 -4.45,-13.05 1.47317,5.14768 5.741,7.97752 6.8,11.07504 -0.66142,-4.38536 0.0181,-9.62808 2.425,-11.77504 -3.23855,2.12192 -2.07684,-5.48168 -5.45,-1.15 -9.23456,4.17816 -8.63898,-8.1584 -10.349997,-13.9 0.0036,-0.24928 -0.0033,-0.50048 0,-0.75 l 3.174997,0 9.2,-29.85 0.1,0 4.375,13.55 c -0.80216,-0.83872 -1.36036,-1.9468 -1.325,-3.02496 -1.99393,2.40272 -5.45292,5.70184 -5.675,9.64992 -1.03637,3.55312 3.81242,2.30064 3.15,5.75008 2.83388,2.56816 6.973966,-1.66688 6.049996,-5.52504 l 3.05,9.45 2.75,0 c 0.22935,0.4256 0.61904,0.83448 1.175,1.25 0.26081,0.7252 5.71916,-1.36952 5.9,2.25 0.35905,-0.40168 0.6422,-0.8684 0.925,-1.32496 0.27269,-0.91136 0.68918,-1.61272 1.175,-2.17504 l 5.625,0 0,-2.52496 c 0.54352,-0.12592 1.09443,-0.24128 1.625,-0.4 2.37185,1.89904 4.6218,-0.38128 7.3,-0.9 0.21016,-0.0184 0.35177,-0.0495 0.525,-0.075 3.41576,2.87488 8.10694,4.42232 14.075,4.65 1.5009,1.0904 2.95352,2.14208 3.55,3.35 -2.66202,1.61776 2.07353,2.4972 -0.35,3.52496 -0.18864,-0.0198 5.10947,0.8976 7.25,0.075 -0.0724,0.54816 1.58706,2.67904 1.625,3.85 4.13982,-2.62824 -0.92592,-7.546 -2.9,-10.17496 -0.90482,0.27416 -2.19443,0.40736 -2.55,-1.17504 10.0599,-1.96096 15.35952,-8.87896 15.9,-20.72496 2.34984,0.27544 0.29595,7.37008 3.15,4.47496 1.89112,11.00104 8.98211,16.6128 21.275,16.82504 14.46,-0.25008 21.707,-8.002 21.75,-23.22504 -0.0118,-2.17912 -0.19296,-4.202 -0.5,-6.07496 1.35465,0.0482 2.5406,0.3612 3.475,1.02496 -0.74959,-2.5876 -3.42899,-5.51368 0.275,-6.47504 -0.31728,-2.34192 -3.22804,-5.95216 0.2,-2.8 l 0,29.05008 c -0.17697,-0.0649 -0.37537,-0.13312 -0.575,-0.22504 -5.65764,0.802 -4.18995,7.58296 -4.3,10.85 -4.07875,-0.958 -3.54004,2.02448 -4.45,4.32496 -0.70805,-3.49872 -6.65023,-7.28624 -9.325,-4.52496 -0.51423,7.09032 -0.53944,14.346 -6.75,19 -1.29158,3.128 2.24896,8.69208 -2.45,10.02496 1.99342,-4.00504 -5.52224,-2.76264 -0.85,-0.0499 -2.52392,0.80456 1.2615,1.78216 -2.2,3.62496 -5.43104,2.7024 -5.22309,-4.96336 -1.15,-6.97504 1.65001,-3.0484 -5.08048,-3.02968 -5.075,-0.22496 -5.66615,3.086 -14.48348,2.53216 -14.225,-5.75 -2.45573,-1.48776 -4.41292,5.99752 -7.325,7.7 2.30148,5.27512 -4.58684,-3.22696 -2.825,2.4 -4.02481,-6.41416 -6.57601,2.78056 -2.625,2.97496 4.70868,-6.30744 1.59529,4.25248 0.325,6.67504 -2.25214,4.16312 -6.42624,4.73904 -10.35,4.7 -0.32988,5.71408 -5.70756,-3.25696 -2.75,3.32496 0.19397,0.70912 -0.62008,1.09992 -1.225,1.1 z m 17.1,-29.9 c 1.31034,-1.71784 1.536,-4.4844 -0.025,-6.12496 -2.81519,-3.14104 -4.38499,3.23928 -0.725,2.65 0.60391,1.2392 -3.75117,0.78304 -5.25,0.05 0.45252,2.95168 4.77567,1.13328 6,3.42496 z m 76.025,-5.84992 c -2.53517,-2.74936 1.61668,-2.61576 1,-5.45008 -0.23439,-0.67016 -3.69643,-1.9184 -1.675,1.17504 1.28757,3.05544 -3.76557,2.7112 -2.275,0.55 1.34941,-1.49712 -4.35192,-5.69456 -1.45,-1.62504 -0.86212,2.01112 -1.35784,-0.93304 -2.475,-1.57496 -1.46556,-2.8292 1.08242,-3.4536 1.875,-3.02504 -1.83608,-2.36592 0.21856,-5.03744 0.375,-4.5 0.0267,-0.3832 0.0103,-0.71656 -0.025,-1.02496 l 4.475,0 3.425,-7.07504 c 0.5961,0.46328 1.21276,0.89776 1.925,0.75008 1.14249,0.19608 4.61424,4.58608 3.275,3.44992 0.21846,0.24072 1.13649,6.79888 1.325,5.85008 2.35231,-0.12256 2.213,2.5872 1.2,4.4 0.0618,2.7816 -1.852,2.38992 -1.85,0.7 -0.77634,3.02448 1.90248,0.91656 -0.275,3.47496 -1.41359,0.0292 -2.64808,2.20504 -4.175,1.55 -1.942,1.66392 -3.82515,-0.13432 -4.675,2.37504 z M 94.671844,412.83654 c 0.68352,-0.73344 1.64915,-1.19304 2.175,-2.07496 -1.12105,-3.48312 5.103126,-7.83056 0.525,-10.3 -0.971,4.10744 -0.98167,8.46024 -2.7,12.37496 z m 52.374996,-10.27496 c -0.15471,-0.004 -0.3009,-0.0614 -0.45,-0.12504 0.33783,-0.0103 0.67025,-0.006 1,-0.025 -0.1842,0.0905 -0.37562,0.15456 -0.55,0.15008 z m -54.449996,-7.02504 c 0.038,0.008 0.0559,-0.0197 0.075,-0.15 -0.33038,-0.31304 -0.18893,0.12552 -0.075,0.15 z m 53.474996,-1.9 c -3.447,-0.043 -5.936,-1.44096 -7.475,-4.2 -1.582,-2.75696 -2.375,-6.15704 -2.375,-10.2 0,-3.16816 0.55382,-5.96856 1.625,-8.42504 1.80636,1.04168 3.65856,1.57488 5.625,-0.6 3.77406,-2.68912 7.86498,-2.36592 10.175,1.2 0.64591,0.22776 1.02423,0.4944 1.225,0.8 0.003,0.0101 0.0218,0.015 0.025,0.025 0.0422,0.13288 0.0855,0.26528 0.125,0.4 0.007,0.0249 0.0178,0.0501 0.025,0.075 3.3e-4,0.008 -1.2e-4,0.0166 0,0.025 0.0338,2.30128 -7.27248,6.06136 -4.825,9.47496 0.90353,2.61688 2.98492,1.86136 5.45,0.52504 -0.31722,2.53944 -0.9804,4.78256 -2.025,6.7 -1.52,2.75904 -4.049,4.15696 -7.575,4.2 z m 46.125,0 c -3.447,-0.043 -5.957,-1.44096 -7.5,-4.2 -1.581,-2.75696 -2.35,-6.15704 -2.35,-10.2 0,-3.5256 0.65293,-6.60552 1.975,-9.25 0.0424,0.0178 0.0816,0.0309 0.125,0.05 3.6617,-0.2432 7.66072,-1.59064 7.175,-5.2 0.19182,-0.0118 0.377,-0.0226 0.575,-0.025 3.526,0.041 6.053,1.52104 7.575,4.45008 1.502,2.8 2.25,6.12392 2.25,9.97496 0,4.04304 -0.748,7.44304 -2.25,10.2 -1.522,2.75904 -4.049,4.15696 -7.575,4.2 z m -82.775,-5.75 -0.425,-1.3 -0.175,-0.55 c 0.0239,0.003 0.0513,-0.003 0.075,0 1.55265,0.6652 1.28104,1.23488 0.525,1.85 z m 15.425,-2.05 c -1.06175,-0.30352 -2.12679,-0.6788 -3.125,-1.15 l 0,-8.32496 c 0.99296,-0.83704 1.93899,-1.6076 2.5,-2.27504 0.30538,-1.2972 0.727,-2.5304 1.15,-3.75 -0.70389,2.61016 -1.05793,5.57872 -1.075,8.9 0.006,2.37856 0.1916,4.58632 0.55,6.6 z m 102.775,-0.25 0.325,-28.32496 c 2.28304,0.7848 4.47398,7.12032 6.65,8.24992 0.16796,1.81384 0.86926,4.71064 1.375,5.32504 l -7.075,14.27496 -0.025,0 c -0.39529,0.13256 -0.82194,0.30112 -1.25,0.47504 z m -119.775,-2.65 -8.399996,-26.15 -1.7,0 c 1.043,-2.60944 1.18407,-5.61168 -0.075,-7.5 -3.95317,-0.41768 3.023946,-8.42072 5.549996,-10.45 2.28424,-1.77184 9.84737,-2.28 4.625,0.47496 -3.39246,3.2044 -5.20384,11.00576 2.225,8.47504 0.68448,2.20416 -0.14936,4.81456 1.775,4.3 3.64276,4.9228 7.34833,-3.91656 3.35,-6.65 3.86776,-1.45688 10.07917,-3.89632 5.95,-7.25 -1.42728,-0.85936 6.13168,-8.57448 10.775,-6.4 3.57945,-1.59408 10.32789,2.69208 5.025,5.65 -0.80334,4.35216 5.96116,9.41216 1,10.5 -4.99753,2.28344 2.45653,1.96032 3.525,-0.6 3.29264,5.7712 -9.81552,3.61528 -4.6,10.15 -0.016,0.015 -0.0339,0.0349 -0.05,0.05 -5.06072,1.81712 -8.5842,5.23032 -10.575,10.22504 0.58972,-1.82104 1.07198,-3.67088 1.1,-5.67504 -0.54448,-3.81856 4.37392,-8.22576 1.075,-11.3 -2.99308,0.49048 -2.67252,5.45216 -5.525,6.92496 -0.52635,0.29136 -0.88799,0.66784 -1.175,1.07504 l 0,-2 -11.25,0 0.1,21.52496 c -0.90573,1.35816 -1.52532,3.50096 -2.725,4.62504 z m 1.3,-4.07496 c 0.0567,0.003 0.0949,-0.0692 0.1,-0.3 -0.44121,-0.22664 -0.24496,0.29256 -0.1,0.3 z m 14.675,-3.65008 c 0.10747,0.008 0.33557,-0.087 0.075,-0.14992 -0.1688,0.0994 -0.13952,0.14536 -0.075,0.14992 z m 112.675,-5.42496 c 0.0297,-0.39424 0.028,-0.86608 0.025,-1.5 0.30073,-0.1468 0.58948,-0.24752 0.85,-0.27504 l -0.875,1.77504 z m -19.1,-7.95 c -0.0341,-0.35696 -0.0339,-0.68536 0,-0.97496 l 0,0.97496 z m -89.1,-0.52504 c 0.006,0.002 0.02,0 0.025,0 0.15304,-0.0118 0.10535,-0.81224 -0.175,-0.22496 0.0644,0.14672 0.1093,0.21392 0.15,0.22496 z m 95.45,-4.52496 c 0.52799,-0.39856 0.99951,-0.47928 1.35,0 l -1.35,0 z m -18.95,-0.67504 c 0.19454,-0.61832 -0.53151,-0.98144 -1.05,-0.97496 -0.73228,-0.009 -1.51028,0.206 -2.2,-0.15 -0.44215,-0.22896 -0.24293,-0.84976 0.25,-0.6 1.03152,0.0317 2.13594,-0.2492 2.9,-0.97504 -0.008,-0.72352 -0.91839,-0.4076 -1.375,-0.57496 -0.54835,-0.25864 -0.59361,-1.0084 -1.025,-1.42504 -0.44348,-0.67376 -0.85284,-1.4416 -0.825,-2.27496 -0.30217,0.17888 -1.47164,0.144 -0.725,-0.27496 0.69244,-0.5324 1.69964,-0.6028 2.225,-1.35008 0.076,-0.25432 -0.65232,-0.57312 -0.2,-0.94992 0.34258,-0.4496 0.90965,-0.27536 1.375,-0.35008 0.64585,-0.20904 0.76869,-1.13664 0.325,-1.6 -0.55312,-0.28312 -1.29891,0.0898 -1.75,-0.42496 -0.37325,-0.57656 0.2055,-1.24688 0.775,-1.4 0.66817,-0.20872 1.40965,-0.26112 2.075,-0.025 0.60084,0.2372 1.21264,0.84536 1.9,0.54992 0.42672,-0.35568 1.05444,-0.47024 1.55,-0.17496 0.5424,0.32064 0.77324,0.95304 0.95,1.52504 0.16236,0.68368 0.1416,1.4732 -0.25,2.07496 -0.6175,0.70408 -1.69318,1.1588 -2.575,0.67496 -0.64467,-0.19128 -0.76968,-1.05144 -1.4,-1.24992 -0.70856,0.11104 0.009,0.842 0.25,1.12496 0.27148,0.32376 0.72572,0.83712 0.4,1.25 -0.5514,0.52728 -1.36399,0.22232 -2.025,0.15 -0.31196,-0.11888 -1.42745,-0.0386 -0.725,0.37504 0.51514,0.26176 1.02368,0.51136 1.525,0.8 0.56492,0.21176 0.92647,0.77008 0.65,1.34992 -0.0448,0.71328 0.47124,1.47208 1.2,1.55008 0.0985,0.0242 0.27936,-0.0402 0.425,-0.12504 -0.59472,0.9468 -0.88,2.11256 -1.8,2.82504 -0.26508,0.23992 -0.54544,0.4628 -0.85,0.64992 z m 2.65,-3.47496 c 0.0194,-0.0309 0.0298,-0.0696 0.05,-0.1 0.34653,-0.20904 0.18744,-0.0382 -0.05,0.1 z"
       id="path9609-7"
       inkscape:connector-curvature="0" /><g
       id="g11031"
       transform="translate(1.2468474,928.90142)"><g
         style="fill:#000000"
         id="g3158-3-8-5"
         transform="translate(0,-936.00008)"><path
           inkscape:connector-curvature="0"
           id="path24-4-1-2"
           style="fill:#000000;fill-opacity:1;fill-rule:nonzero;stroke:none"
           d="m 299.29,121.816 c 0,-4.085 -1.596,-7.248 -4.791,-9.491 -3.196,-2.24 -7.693,-3.361 -13.495,-3.361 -10.788,0 -17.04,3.747 -18.757,11.247 l 5.812,1.163 c 0.67,-2.668 2.093,-4.626 4.272,-5.876 2.178,-1.25 5.143,-1.874 8.893,-1.874 3.876,0 6.864,0.666 8.971,2 2.104,1.335 3.156,3.291 3.156,5.878 0,1.444 -0.33,2.618 -0.989,3.518 -0.659,0.899 -1.587,1.643 -2.78,2.229 -1.196,0.587 -2.62,1.082 -4.274,1.479 -1.654,0.397 -3.487,0.828 -5.497,1.289 -3.498,0.773 -6.154,1.55 -7.967,2.324 -1.811,0.776 -3.239,1.639 -4.287,2.593 -1.048,0.954 -1.85,2.067 -2.404,3.346 -0.557,1.278 -0.833,2.745 -0.833,4.399 0,3.791 1.45,6.715 4.352,8.77 2.902,2.051 7.054,3.078 12.458,3.078 5.026,0 8.869,-0.77 11.53,-2.309 2.66,-1.539 4.526,-4.165 5.595,-7.872 l -5.908,-1.036 c -0.65,2.348 -1.887,4.047 -3.709,5.108 -1.821,1.056 -4.345,1.587 -7.571,1.587 -3.541,0 -6.241,-0.587 -8.106,-1.76 -1.865,-1.174 -2.795,-2.924 -2.795,-5.25 0,-1.364 0.36,-2.49 1.082,-3.378 0.722,-0.892 1.765,-1.646 3.126,-2.263 1.361,-0.618 4.074,-1.379 8.139,-2.278 1.361,-0.314 2.717,-0.635 4.069,-0.957 1.35,-0.327 2.643,-0.713 3.878,-1.165 1.237,-0.448 2.395,-0.978 3.474,-1.587 1.078,-0.607 2.017,-1.35 2.813,-2.23 0.795,-0.881 1.417,-1.918 1.869,-3.111 0.448,-1.194 0.674,-2.598 0.674,-4.21" /><path
           inkscape:connector-curvature="0"
           id="path26-1-9-9"
           style="fill:#000000;fill-opacity:1;fill-rule:nonzero;stroke:none"
           d="m 347.639,131.932 c 0,-4.63 -0.887,-8.682 -2.659,-12.16 -1.771,-3.478 -4.313,-6.148 -7.623,-8.013 -3.311,-1.865 -7.219,-2.795 -11.725,-2.795 -4.55,0 -8.474,0.922 -11.776,2.765 -3.302,1.844 -5.821,4.509 -7.56,7.995 -1.741,3.489 -2.611,7.559 -2.611,12.208 0,7.082 1.939,12.616 5.817,16.608 3.878,3.991 9.273,5.987 16.19,5.987 4.507,0 8.417,-0.897 11.728,-2.688 3.31,-1.791 5.843,-4.395 7.593,-7.807 1.75,-3.415 2.626,-7.448 2.626,-12.1 z m -6.128,0.018 c 0,5.514 -1.378,9.842 -4.135,12.99 -2.758,3.143 -6.651,4.717 -11.684,4.717 -5.073,0 -8.992,-1.552 -11.759,-4.657 -2.768,-3.103 -4.153,-7.453 -4.153,-13.05 0,-5.557 1.4,-9.965 4.198,-13.226 2.8,-3.261 6.685,-4.891 11.654,-4.891 5.115,0 9.038,1.579 11.775,4.735 2.737,3.154 4.104,7.614 4.104,13.382" /><path
           inkscape:connector-curvature="0"
           id="path28-6-7-7"
           style="fill:#000000;fill-opacity:1;fill-rule:nonzero;stroke:none"
           d="m 373.941,149.657 c -4.901,0 -8.714,-1.578 -11.436,-4.735 -2.723,-3.154 -4.084,-7.477 -4.084,-12.968 0,-5.43 1.417,-9.795 4.256,-13.099 2.837,-3.3 6.676,-4.952 11.514,-4.952 6.201,0 10.859,3.06 13.98,9.181 l 4.902,-2.447 c -1.822,-3.808 -4.383,-6.704 -7.682,-8.69 -3.297,-1.99 -7.125,-2.983 -11.482,-2.983 -4.463,0 -8.321,0.926 -11.577,2.781 -3.257,1.853 -5.739,4.503 -7.446,7.949 -1.708,3.447 -2.56,7.525 -2.56,12.238 0,7.061 1.904,12.591 5.716,16.593 3.813,4.002 9.091,6.002 15.836,6.002 4.714,0 8.65,-0.924 11.813,-2.77 3.163,-1.845 5.489,-4.583 6.976,-8.213 l -5.688,-1.886 c -1.025,2.59 -2.675,4.573 -4.949,5.943 -2.271,1.369 -4.969,2.056 -8.089,2.056" /><path
           inkscape:connector-curvature="0"
           id="path30-3-6-8"
           style="fill:#000000;fill-opacity:1;fill-rule:nonzero;stroke:none"
           d="m 399.818,109.59 6,0 0,44.241 -6,0 0,-44.241 z" /><path
           inkscape:connector-curvature="0"
           id="path32-9-8-9"
           style="fill:#000000;fill-opacity:1;fill-rule:nonzero;stroke:none"
           d="m 415.456,109.59 0,44.241 33.587,0 0,-4.87 -27.585,0 0,-14.19 25.701,0 0,-4.869 -25.701,0 0,-15.443 28.874,0 0,-4.869 -34.876,0" /><path
           inkscape:connector-curvature="0"
           id="path34-3-1-1"
           style="fill:#000000;fill-opacity:1;fill-rule:nonzero;stroke:none"
           d="m 474.107,148.961 0,-39.371 -5.971,0 0,39.371 -15.206,0 0,4.87 36.381,0 0,-4.87 -15.204,0" /><path
           inkscape:connector-curvature="0"
           id="path36-1-2-2"
           style="fill:#000000;fill-opacity:1;fill-rule:nonzero;stroke:none"
           d="m 513.548,127.928 0,-18.338 -5.969,0 0,18.338 -17.029,25.903 6.596,0 13.481,-21.064 13.416,21.064 6.598,0 -17.093,-25.903" /></g><path
         transform="matrix(0.91395967,0,0,-0.91395967,129.77464,699.86527)"
         d="m 143.38747,1644.8513 c 0,59.8234 -48.496465,108.3199 -108.319881,108.3199 -59.823417,0 -108.319878,-48.4965 -108.319878,-108.3199 0,-59.8234 48.496461,-108.3199 108.319878,-108.3199 59.823416,0 108.319881,48.4965 108.319881,108.3199 z"
         sodipodi:ry="108.31988"
         sodipodi:rx="108.31988"
         sodipodi:cy="1644.8513"
         sodipodi:cx="35.067589"
         id="path10929"
         style="fill:#000000;fill-opacity:1;fill-rule:evenodd;stroke:none"
         sodipodi:type="arc" /><path
         id="path38-8-3-6"
         d="m 161.82501,-712.37499 c -42.747,0 -78.61671,-29.454 -88.42501,-69.175 l 10.6,0 9.2,-29.85 0.1,0 9.625,29.85 17.55001,0 0,-44.90001 -11.25001,0 0.175,34.52501 -0.125,0 L 98.2,-826.45 l -10.65,0 -10.625,34.52501 -0.125,0 0.275,-34.52501 -3.4,0 c 10.1887,-39.171 45.79201,-68.1 88.15001,-68.1 42.362,0 77.962,28.929 88.15,68.1 l -8.275,0 -15.25,30.72501 -0.1,0 0.35,-30.72501 -10.55,0 0,44.90001 14.825,0 14.725,-30.475 0.125,0 -0.2,30.475 4.625,0 c -9.81,39.721 -45.673,69.175 -88.425,69.175 z m -17,-68.4 c 14.46,-0.25 21.707,-8.002 21.75,-23.225 -0.082,-15.183 -7.331,-22.93701 -21.75,-23.25001 -14.444,0.313 -21.697,8.06701 -21.775,23.25001 0.039,15.223 7.292,22.975 21.775,23.225 z m 46.125,0 c 14.46,-0.25 21.707,-8.002 21.75,-23.225 -0.082,-15.183 -7.331,-22.93701 -21.75,-23.25001 -14.442,0.313 -21.722,8.06701 -21.8,23.25001 0.039,15.223 7.316,22.975 21.8,23.225 z m -46.125,-8.825 c -3.447,-0.043 -5.936,-1.441 -7.475,-4.2 -1.582,-2.757 -2.375,-6.157 -2.375,-10.2 0,-3.851 0.793,-7.175 2.375,-9.975 1.539,-2.929 4.028,-4.409 7.475,-4.45 3.526,0.041 6.055,1.521 7.575,4.45 1.502,2.8 2.25,6.124 2.25,9.975 0,4.043 -0.748,7.443 -2.25,10.2 -1.52,2.759 -4.049,4.157 -7.575,4.2 z m 46.125,0 c -3.447,-0.043 -5.957,-1.441 -7.5,-4.2 -1.581,-2.757 -2.35,-6.157 -2.35,-10.2 0,-3.851 0.769,-7.175 2.35,-9.975 1.543,-2.929 4.053,-4.409 7.5,-4.45 3.526,0.041 6.053,1.521 7.575,4.45 1.502,2.8 2.25,6.124 2.25,9.975 0,4.043 -0.748,7.443 -2.25,10.2 -1.522,2.759 -4.049,4.157 -7.575,4.2 z"
         style="fill:#ffffff;fill-opacity:1;fill-rule:nonzero;stroke:none"
         inkscape:connector-curvature="0" /><path
         id="path9609-7-2"
         d="m 154.425,-716.67496 c -0.0356,0 -0.0616,-0.028 -0.075,-0.0504 -0.0352,-0.0568 -0.007,-0.0608 0.05,-0.0248 0.0564,0.0352 0.10729,0.0152 0.125,-0.0248 0.0528,-0.11904 0.80083,-0.48264 0.975,-0.47504 0.0887,0.008 0.12443,0.0352 0.1,0.0752 -0.0245,0.0392 -0.1023,0.0528 -0.175,0.0248 -0.0784,-0.0304 -0.16164,0.0288 -0.2,0.15 -0.0518,0.1632 -0.0913,0.19016 -0.2,0.1 -0.0747,-0.0624 -0.12458,-0.0712 -0.125,-0.0248 -7.5e-4,0.11624 -0.3205,0.26432 -0.475,0.25008 z m 6.25,-2.82504 c -0.0125,-0.008 -0.0245,-0.012 -0.025,-0.0496 -0.002,-0.212 0.67787,-0.4468 0.8,-0.27504 0.039,0.0544 0.0742,0.0144 0.075,-0.1 7.5e-4,-0.15304 0.0628,-0.22832 0.275,-0.27496 0.15886,-0.0344 0.41492,-0.12016 0.575,-0.2 0.39155,-0.19528 0.61016,-0.22856 0.775,-0.1 0.11125,0.0868 0.12642,0.0624 0.075,-0.0752 -0.0555,-0.14808 -0.0526,-0.14512 0.125,-0.0504 0.1719,0.092 0.1985,0.0768 0.15,-0.0496 -0.0385,-0.1004 -0.0113,-0.13312 0.075,-0.1 0.071,0.0272 0.17862,-0.0192 0.25,-0.1 0.19441,-0.21984 0.31146,-0.18056 0.15,0.0496 -0.20901,0.29848 -0.54612,0.53424 -0.55,0.37504 -0.002,-0.0768 -0.0383,-0.0648 -0.125,0.0496 -0.0775,0.10248 -0.15,0.13784 -0.15,0.0752 0,-0.16544 -0.15744,-0.15104 -0.225,0.0248 -0.0461,0.12008 0.003,0.14904 0.25,0.12504 0.23978,-0.0232 0.32156,0.009 0.35,0.14992 0.0292,0.1452 -0.008,0.16032 -0.15,0.1 -0.0977,-0.0416 -0.28341,-0.0752 -0.425,-0.1 -0.274,-0.0472 -0.46585,-0.32496 -0.225,-0.32496 0.0775,0 0.125,-0.0456 0.125,-0.1 0,-0.16808 -0.35707,0.0859 -0.425,0.3 -0.0692,0.218 -0.625,0.55128 -0.625,0.37504 0,-0.0624 -0.12769,-0.0168 -0.325,0.1 -0.23209,0.13688 -0.35939,0.17944 -0.4,0.17496 -0.0244,0 -0.0305,-0.0256 0,-0.0752 0.0726,-0.11744 -0.26257,-0.0688 -0.35,0.0496 -0.0217,0.0296 -0.0375,0.0288 -0.05,0.0248 z m 3.925,-1.45 c -0.22852,-0.0176 -0.24685,-0.028 -0.075,-0.2 0.16883,-0.1688 0.425,-0.16424 0.425,0 0,0.068 -0.056,0.10216 -0.1,0.0752 -0.044,-0.0272 -0.075,0 -0.075,0.0496 0,0.0528 -0.0694,0.083 -0.175,0.0752 z m 43.425,-4.87504 c -0.17387,-0.008 -0.36211,-0.0488 -0.425,-0.12496 -0.085,-0.10232 -0.0879,-0.15672 0.025,-0.2 0.21924,-0.0841 0.17441,-0.28368 -0.05,-0.22496 -0.11423,0.0296 -0.1603,0.032 -0.125,-0.0248 0.0326,-0.0528 0.15407,-0.0981 0.275,-0.0752 0.13849,0.0264 0.20145,0.0192 0.175,-0.0504 -0.0255,-0.0664 0.0633,-0.10272 0.225,-0.1 0.14665,0 0.26319,0.0352 0.25,0.0752 -0.0132,0.04 -0.025,0.0972 -0.025,0.15 0,0.0528 -0.0408,0.1 -0.1,0.1 -0.0744,0 -0.0825,-0.0504 0,-0.15 0.0825,-0.0995 0.0744,-0.12504 0,-0.12496 -0.0592,0 -0.0961,0.0104 -0.1,0.0496 -0.004,0.04 -0.0279,0.18128 -0.05,0.3 -0.0272,0.14552 0.003,0.22504 0.1,0.22504 0.0788,0 0.15,0.0224 0.15,0.0752 0,0.0728 -0.15113,0.1084 -0.325,0.1 z M 197.35,-726.3 c -0.056,0 -0.12396,-0.0144 -0.2,-0.0248 -0.24487,-0.0336 -0.57595,-0.0752 -0.75,-0.0752 -0.30804,0 -0.32806,0 -0.275,-0.32504 0.0437,-0.2688 0.0253,-0.34992 -0.1,-0.34992 -0.086,0 -0.15,-0.0224 -0.15,-0.0752 0,-0.0544 0.26631,-0.1 0.625,-0.1 0.53107,0 0.62243,0.0264 0.575,0.15 -0.0322,0.084 0.019,0.16896 0.1,0.2 0.22773,0.0874 0.16766,0.22504 -0.1,0.22504 -0.13927,0 -0.23364,0.0456 -0.2,0.1 0.0326,0.0528 0.21839,0.0752 0.4,0.0752 0.18248,0 0.325,0.0648 0.325,0.12504 0,0.056 -0.082,0.0848 -0.25,0.0752 z m 7.8,-0.0248 c -0.26556,-0.0408 -0.29494,-0.13016 -0.075,-0.2 0.1103,-0.0352 0.18376,-0.12032 0.15,-0.17496 -0.0412,-0.0672 -0.0846,-0.0656 -0.125,0 -0.0331,0.0536 -0.239,0.1208 -0.45,0.15 -0.10549,0.0144 -0.18686,0.0248 -0.225,0.0248 0.006,0 0.0106,-0.0208 0.025,-0.0248 0.0962,-0.0288 0.15163,-0.1056 0.125,-0.17504 -0.0266,-0.0696 -0.0343,-0.16568 0,-0.2 0.0343,-0.0344 0.11246,0.0296 0.15,0.12504 0.0625,0.1584 0.0619,0.1508 0.075,-0.0248 0.008,-0.1056 0.0233,-0.14096 0.05,-0.0752 0.0266,0.0656 0.0986,0.12504 0.15,0.12504 0.0515,0 0.0617,-0.0408 0.025,-0.1 -0.0487,-0.0792 -0.007,-0.0989 0.125,-0.0248 0.22574,0.12632 0.24277,0.55344 0.05,0.57496 -0.0129,0 -0.0352,0 -0.05,0 z m -67.125,-4 c -0.0864,8e-5 -0.17564,-0.009 -0.25,-0.0248 -5.70886,-1.15464 -10.69385,-7.59072 -16.425,-3.1 -7.17971,0.0248 -4.6927,-9.83272 -9.975,-9.82496 -0.93268,-2.83336 -7.777,-2.50568 -3.65,-4.5 -2.97684,-3.82944 -2.25915,-1.13704 -3.375,0.82496 -8.12423,0.69448 4.52042,10.87776 1.2,13.5 -4.70936,-4.22512 -9.18631,-9.35912 -12.825,-14.77504 -0.98936,-2.54888 2.51244,-1.73912 -0.875,-3.77496 -1.93992,-3.57152 -8.55991,-10.24064 -4.45,-13.05 1.47316,5.14768 5.74099,7.97752 6.8,11.07504 -0.66143,-4.38536 0.0181,-9.62808 2.425,-11.77504 -3.23856,2.12192 -2.07685,-5.48168 -5.45,-1.15 -9.23456,4.17816 -8.63899,-8.1584 -10.35,-13.9 0.003,-0.24928 -0.003,-0.50048 0,-0.75 l 3.175,0 9.2,-29.85 0.1,0 4.375,13.55 c -0.80216,-0.83872 -1.36036,-1.9468 -1.325,-3.02496 -1.99394,2.40272 -5.45293,5.70184 -5.675,9.64992 -1.03638,3.55312 3.81241,2.30064 3.15,5.75008 2.83388,2.56816 6.97397,-1.66688 6.049997,-5.52504 l 3.050003,9.45 2.75,0 c 0.22934,0.4256 0.61903,0.83448 1.175,1.25 0.26081,0.7252 5.71915,-1.36952 5.9,2.25 0.35905,-0.40168 0.6422,-0.8684 0.925,-1.32496 0.27269,-0.91136 0.68918,-1.61272 1.175,-2.17504 l 5.625,0 0,-2.52496 c 0.54352,-0.12592 1.09442,-0.24128 1.625,-0.4 2.37185,1.89904 4.6218,-0.38128 7.3,-0.9 0.21016,-0.0184 0.35177,-0.0496 0.525,-0.0752 3.41576,2.87488 8.10694,4.42232 14.075,4.65 1.5009,1.0904 2.95351,2.14208 3.55,3.35 -2.66202,1.61776 2.07353,2.4972 -0.35,3.52496 -0.18865,-0.02 5.10946,0.8976 7.25,0.0752 -0.0724,0.54816 1.58706,2.67904 1.625,3.85 4.13982,-2.62824 -0.92593,-7.546 -2.9,-10.17496 -0.90482,0.27416 -2.19443,0.40736 -2.55,-1.17504 10.0599,-1.96096 15.35952,-8.87896 15.9,-20.72496 2.34983,0.27544 0.29594,7.37008 3.15,4.47496 1.89111,11.00104 8.9821,16.6128 21.275,16.82504 14.46,-0.25008 21.707,-8.002 21.75,-23.22504 -0.0118,-2.17912 -0.19296,-4.202 -0.5,-6.07496 1.35465,0.048 2.54059,0.3612 3.475,1.02496 -0.74959,-2.5876 -3.42899,-5.51368 0.275,-6.47504 -0.31729,-2.34192 -3.22804,-5.95216 0.2,-2.8 l 0,29.05008 c -0.17698,-0.0648 -0.37538,-0.13312 -0.575,-0.22504 -5.65765,0.802 -4.18995,7.58296 -4.3,10.85 -4.07875,-0.958 -3.54004,2.02448 -4.45,4.32496 -0.70806,-3.49872 -6.65023,-7.28624 -9.325,-4.52496 -0.51423,7.09032 -0.53944,14.346 -6.75,19 -1.29158,3.128 2.24895,8.69208 -2.45,10.02496 1.99342,-4.00504 -5.52224,-2.76264 -0.85,-0.0496 -2.52393,0.80456 1.2615,1.78216 -2.2,3.62496 -5.43104,2.7024 -5.2231,-4.96336 -1.15,-6.97504 1.65001,-3.0484 -5.08048,-3.02968 -5.075,-0.22496 -5.66615,3.086 -14.48348,2.53216 -14.225,-5.75 -2.45574,-1.48776 -4.41292,5.99752 -7.325,7.7 2.30148,5.27512 -4.58684,-3.22696 -2.825,2.4 -4.02482,-6.41416 -6.57602,2.78056 -2.625,2.97496 4.70868,-6.30744 1.59529,4.25248 0.325,6.67504 -2.25214,4.16312 -6.42624,4.73904 -10.35,4.7 -0.32988,5.71408 -5.70756,-3.25696 -2.75,3.32496 0.19397,0.70912 -0.62009,1.09992 -1.225,1.1 z m 17.1,-29.9 c 1.31034,-1.71784 1.536,-4.4844 -0.025,-6.12496 -2.81519,-3.14104 -4.38499,3.23928 -0.725,2.65 0.6039,1.2392 -3.75118,0.78304 -5.25,0.0496 0.45252,2.95168 4.77566,1.13328 6,3.42496 z m 76.025,-5.84992 c -2.53518,-2.74936 1.61667,-2.61576 1,-5.45008 -0.23439,-0.67016 -3.69643,-1.9184 -1.675,1.17504 1.28757,3.05544 -3.76558,2.7112 -2.275,0.55 1.34941,-1.49712 -4.35193,-5.69456 -1.45,-1.62504 -0.86213,2.01112 -1.35785,-0.93304 -2.475,-1.57496 -1.46556,-2.8292 1.08242,-3.4536 1.875,-3.02504 -1.83609,-2.36592 0.21855,-5.03744 0.375,-4.5 0.0267,-0.3832 0.0103,-0.71656 -0.025,-1.02496 l 4.475,0 3.425,-7.07504 c 0.5961,0.46328 1.21275,0.89776 1.925,0.75008 1.14249,0.19608 4.61424,4.58608 3.275,3.44992 0.21846,0.24072 1.13649,6.79888 1.325,5.85008 2.3523,-0.12256 2.21299,2.5872 1.2,4.4 0.0618,2.7816 -1.85201,2.38992 -1.85,0.7 -0.77634,3.02448 1.90248,0.91656 -0.275,3.47496 -1.41359,0.0288 -2.64809,2.20504 -4.175,1.55 -1.942,1.66392 -3.82515,-0.13432 -4.675,2.37504 z m -137.725,-4.32504 c 0.68351,-0.73344 1.64914,-1.19304 2.175,-2.07496 -1.12106,-3.48312 5.10313,-7.83056 0.525,-10.3 -0.97101,4.10744 -0.98168,8.46024 -2.7,12.37496 z m 52.375,-10.27496 c -0.15471,-0.008 -0.3009,-0.0616 -0.45,-0.12504 0.33782,-0.0104 0.67025,-0.008 1,-0.0248 -0.1842,0.0905 -0.37562,0.15456 -0.55,0.15008 z m -54.45,-7.02504 c 0.038,0.008 0.0559,-0.02 0.075,-0.15 -0.33039,-0.31304 -0.18894,0.12552 -0.075,0.15 z m 53.475,-1.9 c -3.447,-0.0432 -5.936,-1.44096 -7.475,-4.2 -1.582,-2.75696 -2.375,-6.15704 -2.375,-10.2 0,-3.16816 0.55382,-5.96856 1.625,-8.42504 1.80635,1.04168 3.65855,1.57488 5.625,-0.6 3.77406,-2.68912 7.86498,-2.36592 10.175,1.2 0.6459,0.22776 1.02422,0.4944 1.225,0.8 0.003,0.0104 0.0218,0.0152 0.025,0.0248 0.0422,0.13288 0.0855,0.26528 0.125,0.4 0.007,0.0248 0.0178,0.0504 0.025,0.0752 3.3e-4,0.009 -1.3e-4,0.0168 0,0.0248 0.0338,2.30128 -7.27248,6.06136 -4.825,9.47496 0.90353,2.61688 2.98491,1.86136 5.45,0.52504 -0.31722,2.53944 -0.9804,4.78256 -2.025,6.7 -1.52,2.75904 -4.049,4.15696 -7.575,4.2 z m 46.125,0 c -3.447,-0.0432 -5.957,-1.44096 -7.5,-4.2 -1.581,-2.75696 -2.35,-6.15704 -2.35,-10.2 0,-3.5256 0.65293,-6.60552 1.975,-9.25 0.0424,0.0176 0.0816,0.0312 0.125,0.0496 3.6617,-0.2432 7.66072,-1.59064 7.175,-5.2 0.19182,-0.012 0.37699,-0.0224 0.575,-0.0248 3.526,0.0408 6.053,1.52104 7.575,4.45008 1.502,2.8 2.25,6.12392 2.25,9.97496 0,4.04304 -0.748,7.44304 -2.25,10.2 -1.522,2.75904 -4.049,4.15696 -7.575,4.2 z m -82.775,-5.75 -0.425,-1.3 -0.175,-0.55 c 0.0239,0 0.0513,0 0.075,0 1.55265,0.6652 1.28103,1.23488 0.525,1.85 z m 15.425,-2.05 c -1.06175,-0.30352 -2.12679,-0.6788 -3.125,-1.15 l 0,-8.32496 c 0.99296,-0.83704 1.93898,-1.6076 2.5,-2.27504 0.30538,-1.2972 0.727,-2.5304 1.15,-3.75 -0.7039,2.61016 -1.05794,5.57872 -1.075,8.9 0.006,2.37856 0.1916,4.58632 0.55,6.6 z m 102.775,-0.25 0.325,-28.32496 c 2.28303,0.7848 4.47398,7.12032 6.65,8.24992 0.16795,1.81384 0.86926,4.71064 1.375,5.32504 l -7.075,14.27496 -0.025,0 c -0.3953,0.13256 -0.82194,0.30112 -1.25,0.47504 z m -119.775,-2.65 -8.4,-26.15 -1.7,0 c 1.04299,-2.60944 1.18406,-5.61168 -0.075,-7.5 -3.95318,-0.41768 3.023937,-8.42072 5.55,-10.45 2.28423,-1.77184 9.84737,-2.28 4.625,0.47496 -3.39246,3.2044 -5.20385,11.00576 2.225,8.47504 0.68448,2.20416 -0.14937,4.81456 1.775,4.3 3.64276,4.9228 7.34833,-3.91656 3.35,-6.65 3.86776,-1.45688 10.07917,-3.89632 5.95,-7.25 -1.42728,-0.85936 6.13168,-8.57448 10.775,-6.4 3.57945,-1.59408 10.32789,2.69208 5.025,5.65 -0.80334,4.35216 5.96116,9.41216 1,10.5 -4.99754,2.28344 2.45653,1.96032 3.525,-0.6 3.29264,5.7712 -9.81553,3.61528 -4.6,10.15 -0.016,0.0152 -0.0338,0.0352 -0.05,0.0496 -5.06073,1.81712 -8.5842,5.23032 -10.575,10.22504 0.58971,-1.82104 1.07198,-3.67088 1.1,-5.67504 -0.54449,-3.81856 4.37391,-8.22576 1.075,-11.3 -2.99309,0.49048 -2.67252,5.45216 -5.525,6.92496 -0.52635,0.29136 -0.88799,0.66784 -1.175,1.07504 l 0,-2 -11.25,0 0.1,21.52496 c -0.90574,1.35816 -1.52533,3.50096 -2.725,4.62504 z m 1.3,-4.07496 c 0.0567,0 0.0949,-0.0696 0.1,-0.3 -0.44122,-0.22664 -0.24496,0.29256 -0.1,0.3 z m 14.675,-3.65008 c 0.10746,0.008 0.33557,-0.087 0.075,-0.14992 -0.1688,0.0994 -0.13953,0.14536 -0.075,0.14992 z m 112.675,-5.42496 c 0.0297,-0.39424 0.028,-0.86608 0.025,-1.5 0.30073,-0.1468 0.58948,-0.24752 0.85,-0.27504 l -0.875,1.77504 z m -19.1,-7.95 c -0.0342,-0.35696 -0.0338,-0.68536 0,-0.97496 l 0,0.97496 z m -89.1,-0.52504 c 0.006,0 0.02,0 0.025,0 0.15303,-0.012 0.10534,-0.81224 -0.175,-0.22496 0.0644,0.14672 0.1093,0.21392 0.15,0.22496 z m 95.45,-4.52496 c 0.52798,-0.39856 0.9995,-0.47928 1.35,0 l -1.35,0 z m -18.95,-0.67504 c 0.19454,-0.61832 -0.53151,-0.98144 -1.05,-0.97496 -0.73229,-0.009 -1.51029,0.206 -2.2,-0.15 -0.44215,-0.22896 -0.24294,-0.84976 0.25,-0.6 1.03152,0.032 2.13594,-0.2492 2.9,-0.97504 -0.008,-0.72352 -0.91839,-0.4076 -1.375,-0.57496 -0.54835,-0.25864 -0.59362,-1.0084 -1.025,-1.42504 -0.44349,-0.67376 -0.85285,-1.4416 -0.825,-2.27496 -0.30218,0.17888 -1.47164,0.144 -0.725,-0.27496 0.69243,-0.5324 1.69963,-0.6028 2.225,-1.35008 0.076,-0.25432 -0.65233,-0.57312 -0.2,-0.94992 0.34258,-0.4496 0.90965,-0.27536 1.375,-0.35008 0.64585,-0.20904 0.76869,-1.13664 0.325,-1.6 -0.55313,-0.28312 -1.29891,0.0898 -1.75,-0.42496 -0.37326,-0.57656 0.2055,-1.24688 0.775,-1.4 0.66817,-0.20872 1.40965,-0.26112 2.075,-0.0248 0.60083,0.2372 1.21263,0.84536 1.9,0.54992 0.42672,-0.35568 1.05443,-0.47024 1.55,-0.17496 0.5424,0.32064 0.77323,0.95304 0.95,1.52504 0.16235,0.68368 0.1416,1.4732 -0.25,2.07496 -0.6175,0.70408 -1.69318,1.1588 -2.575,0.67496 -0.64467,-0.19128 -0.76968,-1.05144 -1.4,-1.24992 -0.70856,0.11104 0.009,0.842 0.25,1.12496 0.27147,0.32376 0.72571,0.83712 0.4,1.25 -0.55141,0.52728 -1.36399,0.22232 -2.025,0.15 -0.31197,-0.11888 -1.42746,-0.0384 -0.725,0.37504 0.51514,0.26176 1.02367,0.51136 1.525,0.8 0.56492,0.21176 0.92646,0.77008 0.65,1.34992 -0.0448,0.71328 0.47123,1.47208 1.2,1.55008 0.0985,0.024 0.27935,-0.04 0.425,-0.12504 -0.59473,0.9468 -0.88001,2.11256 -1.8,2.82504 -0.26508,0.23992 -0.54545,0.4628 -0.85,0.64992 z m 2.65,-3.47496 c 0.0194,-0.0312 0.0298,-0.0696 0.05,-0.1 0.34653,-0.20904 0.18743,-0.0384 -0.05,0.1 z"
         style="fill:#cccccc;fill-opacity:1;stroke:none"
         inkscape:connector-curvature="0" /></g></g></svg>